<mxfile host="65bd71144e">
    <diagram id="X1a2b3c4d" name="Diagrama Arquitetural - Gerenciador de Tarefas">
        <mxGraphModel dx="2380" dy="1581" grid="0" gridSize="10" guides="1" tooltips="1" connect="1" arrows="1" fold="1" page="0" pageScale="1" pageWidth="850" pageHeight="1100" math="0" shadow="0">
            <root>
                <mxCell id="0"/>
                <mxCell id="1" parent="0"/>
                <mxCell id="2" value="Usuário (Browser)" style="rounded=1;whiteSpace=wrap;html=1;fillColor=#d9eaf7;strokeColor=#6c8ebf;fontSize=14;fontColor=#1a1a1a;sketch=1;curveFitting=1;jiggle=2;" parent="1" vertex="1">
                    <mxGeometry x="1133" y="371" width="160" height="60" as="geometry"/>
                </mxCell>
                <mxCell id="3" value="Front-end React" style="rounded=1;whiteSpace=wrap;html=1;fillColor=#f4cccc;strokeColor=#cc0000;fontSize=14;fontColor=#660000;sketch=1;curveFitting=1;jiggle=2;" parent="1" vertex="1">
                    <mxGeometry x="826" y="-106" width="160" height="60" as="geometry"/>
                </mxCell>
                <mxCell id="4" value="Back-end Node.js + Express + TypeScript" style="rounded=1;whiteSpace=wrap;html=1;fillColor=#d9ead3;strokeColor=#38761d;fontSize=14;fontColor=#274e13;sketch=1;curveFitting=1;jiggle=2;" parent="1" vertex="1">
                    <mxGeometry x="786" y="-26" width="260" height="60" as="geometry"/>
                </mxCell>
                <mxCell id="5" value="Banco de Dados PostgreSQL" style="rounded=1;whiteSpace=wrap;html=1;fillColor=#ffe599;strokeColor=#b58900;fontSize=14;fontColor=#6b4c00;sketch=1;curveFitting=1;jiggle=2;" parent="1" vertex="1">
                    <mxGeometry x="776" y="74" width="260" height="60" as="geometry"/>
                </mxCell>
                <mxCell id="6" value="Firebase Authentication" style="rounded=1;whiteSpace=wrap;html=1;fillColor=#cfe2f3;strokeColor=#1155cc;fontSize=14;fontColor=#0b3d91;sketch=1;curveFitting=1;jiggle=2;" parent="1" vertex="1">
                    <mxGeometry x="786" y="174" width="260" height="60" as="geometry"/>
                </mxCell>
                <mxCell id="7" value="Serviço Gmail (Envio de Email)" style="rounded=1;whiteSpace=wrap;html=1;fillColor=#f9cb9c;strokeColor=#b45f06;fontSize=14;fontColor=#7f4f01;sketch=1;curveFitting=1;jiggle=2;" parent="1" vertex="1">
                    <mxGeometry x="786" y="304" width="260" height="60" as="geometry"/>
                </mxCell>
                <mxCell id="10" value="# Inicializa o modelo com a chave já presente no ambiente&#xa;llm = ChatOpenAI(model=&quot;gpt-3.5-turbo&quot;, temperature=0)" style="text;whiteSpace=wrap;" vertex="1" parent="1">
                    <mxGeometry x="65" y="375" width="340" height="51" as="geometry"/>
                </mxCell>
                <mxCell id="11" value="" style="shape=image;verticalLabelPosition=bottom;labelBackgroundColor=default;verticalAlign=top;aspect=fixed;imageAspect=0;image=data:image/png,iVBORw0KGgoAAAANSUhEUgAAAGwAAABiCAYAAAC1bDa9AAAABHNCSVQICAgIfAhkiAAAF3hJREFUeF7t3XWw5UT2B/Ae3N11cHd3XaBwKNytsIXFHaqAPyiowm2Rwt11F3encHdYYHF3mYFfPv3oIZNN7rvvTjIzl9901a37bpLunD7fY336JK/f71kLI1rXcGCkrqF0BKGRAyMA6zJBGAFYlwE2SpfRW0nub7/9FgYMGBDPjzLKKGGkkf6astj1gImZfv755/D++++Ht99+OwCuf//+Ydpppw1jjTVWJcDdeqLrAQPWAw88EE488cTw0UcfhZFHHjlMPPHEYfvttw9rrbVWGH300bsVm1K6u9pu0Kb33nsv/POf/wyTTTZZ/D7ttNPCXHPNFU4//fTw8ssvl066mw92tYbxWf/5z3/Chx9+GPbdd9+w8MILh4EDB4ZRRx01vPjii+Gpp54K8803X+jXr183YzQY7V2tYWnNL8DwN43z7SPwSL//MmhlE+kKDUvAACBDI4yU+SmNv5p66qnDpJNOGq666qowzjjjRLBuvvnmGIjMP//8g2mXc7SSFgJU/27Tvn7ZJIb71BQSv/nmm/Df//43/Prrr2GKKaYIk0wySQzdf/zxx3DnnXeG448/Pv4NgDHHHDNss802YbPNNovAOAZsY/Brn3zySQR6ttlmiyD3WMzuMJvDPWDA+vbbb8Nll10Wbr/99gjSTDPNFHbfffcw1VRTZXomrP8lvPTSS+G8886Lof0RRxwR5p577sEiRGDRvMsvvzwCapz11lsvrL/++hHUbmnDvQ+jGQKLG264IWy99dZhn332iRpy2223RfMXQr8IzCyzzBIWWmihCOa8884bRhtttEEYGOOzzz4L999/f1hnnXXCCSecEP72t7+Fu+66K/zwww/dglWkc7gXLaBg6hhjjBFBGXvssaM5+/zzzyNgzF3eqpdZ+OSn+C6f77//PvYBarf5sEYBI9kYhCmdOnj9pplmmjDRRBOFc845J4w/3njh9ddfD3//+98HMTsxnRcqAwwdv/zySwxErrzyyvDcc8+F7777LqyxxhpRAPra3CNFoEzr0EyDNQaYAOCDDz6IaySSTCsmn3zylv4CuBjrm5mzngKGfnvttVdcGMtqHH744WGxxRZrSzuSObzjjjsimDvttFO8B21lOoHoGjS6X29N0EO7zeunn36KwY8gqCd4aT5waQQwTLj77rvD2WefHT799NPIWNmHXXfdNcwzzzylEgkkTLDY/f777zKGzhoDB6ZQUDDzzDNH//Pll1+GZZdddhCYg2lUyQIZOM8++2ykZ++99w5LLrlk1HbhvajTOfQCcI455miZygKWKPOiiy4Kjz/+eBiYjTHFlFPGwGXNNdcM42Xa33SrHTAMZLKOPPLIGATstttu4euvvw5nnnlmOPbYY2PqqDgxfb766quYTnrt1VfDRFku8OqrrwkHHnhgWGSRRSIPir5mkBn8AyS/ix/9CAKQrdWMlRbZ8o7nnntujC7HH3/88O9//zsKlGxJ/l5oM4ZGoK6++upoUrfddtuYDrvvvvvCpZdeGvOXApmmzWMjgInGSOPBBx8cTSGTQ1MOOOCA8NZbb8UFbb5hCgY++uijEVTh+sknnxwjwSIDB+vY5g8A0KrEzJTSeuWVV8JBBx0UJphg/HDBBReGe++9NyywwAKDzDbtFJF+/PHHcQ6vvfZaBGvdddcNW2yxRRxvuummCyeddFKMQJdffvmWGtomuS0vawQw/otNT6E1QGiVCQKyrGGq9dEXX3wRwXWd300092Jm0Uf7khblt2OYSflIGZQ333wzAuFalmDccceNZOlnHIELeoHadKsdMMygQRdeeGHUkOWWWy6G5dZRNEfEV2z6OEdCTz311OifgLbVVlv9jyks9u3kN23rn+2Z8as0GVATTjhh2GSTTaImErjnn38+ggWE/fffP5o8OwP8FzPIvxLKxx57LK4T11577cHWfp3Q1U6f2gGjRYsuumjMIvBX119/fXTw/JjshIiq2ADGj+y4444x6hKsnHHGGZGhTTT343+23HLLSBszLSCZccYZY+Qn8JERmWCCCSJNPRmVEPsQPtHqoYceGq2GiJGADg3/hRe1A2ZQJgMDSOFxxx0XZp111jjBYjI2DwYmMi1CbYyiiY411YxNQ/gg5i/djy+97rrrogBZ61lSaMwfE81iOGZ5IWUmslx66aVjUNMkvYkPjQBmcNK3+uqrx3B6qaWWait4SBMufieG9QYepva1pXvp60ODmES0A6YIAlNN8Oyzpeaa4nV9paPd6xvPJfIJUkGpQKY3whLjeruu7HzqWzZGYmorxuqXAodieF7slx+veK6MtrqONQaYyZu0sN4iU0g8YEB5hJifjD5lGQdMAX7K/5Vpk74+ReD0KxvTfZ1L2Xr30D+/BMjTVgQp/a4LjHbGaQwwkxEKc+x8hbWKyCulgkiyT1Eb+D9rL0xM55LUi9RkSoxdBAWj+RHZ+tSS0DBtKYDJ9wPMlFmmQhYlAS1ilPXgR3trxrKoTvPo7fo6zte+H2YSaU2StMHiE2C+AYjxGsaLClP0JY0FUB++Im+WEnMsZtP6LG+KnBfhDRw4IAtebEr+CSqmpvxksU/agU7VVUA0PhrzWzRFZutnXSZIQSehkKDO01zsU8fvWgEjaRK+UlMYO8MMM4T+2XqHtpic9JTcnQhMc3yVVVaJIbHUkLUaphcbMFIbxHBBQvHCP34nsGKMmQHXW8uPL1haPlsPWpbQ9jLtcT2gbrzxxrgOA+yCCy4YNtxww6jlTbYaAbON/2046qijgpQPDWEKpX6sbzBRGCxrkAIQxyaffLK4Y7zBBhtEM2fbflg1WggI38ccc0yYc8454+9kkhNdLAjBU5oAJPMRDauDFF022WoM6/vF7Xn5QGsvpk7u8MEHH4yAaSQ2Hw47hhlPP/10NJe2UGx/AHKQlrShIXUxSDh/6623RvrNBXDXXHPN/6TTHLdgNh++UVKACZVWa7rVCFjP4pLTxmxSyFSopQAK35A3PWlijjmvj4Wzz7ACDI2sAj/EXFsUy8oX6QYYQCWLpa9cb56zz968dagVMD5LxGXbwsT5MmZFDi5fMp0YABimUysypWlJ7W184AmGpNLQhtZ8o1kCDflS4PJ5887752K6t/E7PV8rYBw2M3jPPffExTKwbrnllpg9YD7SpNM3psgaJK00iaRdqqGGdQNUlSARSBupSyyxRLxm9NFHazxCxI9aAcNsC+XNN9888pqp47Pk3ZjIBEYCLC1S84zJa18CzTjMUJ0t3bu3MYualb+ewCVTbykiqNIIZ7IcvY3f1/O1AubmGM55Y7L1jGQu0IpmJQEDiCeffDLSnZfm/Pm0VOjr5Kqux2SmzgK5t3VTnqaq8fivZ555JgZPzCOrYfHfBGi1AWZiQLI3JKNhHSZLz3GnBXTZhKsYQrKdsy5TQKrkoAhq2XjtHGPO1GEcdthhgxbHRU1ybxqTNjirxiVw6jysIdP60rKGeyCsdbfaADNhkmYDUojOL9kL+8c//lG6aZmAEoxUgZYAUpKmYIZAtLq2XeZgpp1jY/kUwfKbCQcEH1xMXOdpABjaaJP9PgBfccUVUWhTGq1dutq5rjbA3Ix2MQ2nnHJKXJdYVwFQ8FFkikkzRxbK+eyA64rXponUAZaxiuMXfyfarCVpCUEpa/oBk2YJ89V7CLBYl0knnaSsyxAfqw2wJKkkLZkR2mMyJl5kCspHyiZcFj0O8ayGcAC0yu5LJFumlNHecwtu4Pfw7rvvxgW2jU9z5gYWWmjw6qshJGlQ91oBk9EgkRdccEFcAHPAe+yxR+if5ROr2m+/Dcyc9TM9EWTVRUP5eF6Tq8FClO2YfnHXeocddoimkdWwe91JRXE70+wIsJSZyE8GoZy5hxWkpwQL6hItpuPUMqkta2U+pOy64fmYubMkxXrLRHMSgCoe9GVufQIMCIop5c6ovpW+aqNEiG/+SBWs1g6BJlOXb+rLxJu4tjhfAQle2Tbi12gd/hDs4rXt0tMWYBhqYSh39q9//SsSwFeppJWSsQmYB6hTYtoluhuuS9Gjmn4WRzAi1SU7YvuGoHfS2gLMwC+88EI4+uijY+Z9ueymH2XVsGr0aJ0SZ/6qE6CqIrBOJlN3H7R1Sp9lg/Wj5LDwXu7RMuGSSy6JvFpttdU64llbgCHatgNADj/88Jh+ouIiKQQI22lcXwFzfar5q5vZQzIeb+tBB3thahY7AU3C2wODwPKMAB+njv+ss86KhajLLLPMoIV2X2htC7DfM8Ashpk+2+BSO7IXMhl8Gk1Ljwb16eaZpNlxnn766XsWsX3p3OC10s6/ZAtnGQvPk6Xy8nZ9LUH8KltAf5o99SlFZelCq/CO38czAt9XATfltgDrl0VBtOjiiy+OeT9rE9l4DwDImx2SPfQwZgevCUIwB0yKOyG+QcxiUJUewW0XqDw9XqXkSZdXs6dxaJZEArciucCtdBr2twdYxthVV101qnJ604wdV4TssssuYfZsodhbErWKuZzz8AYWWs1HmJ6qp/pKowBDhEjIPUZFs4DIEq288sodvwerbcCYLeXWVvPvvPNO1Iw999wzmjQmMjWpGjlFQJhwq8qj1KevzKgCf3g6jj/KumkqX+aheGm4lVZaqWXJem9zaBswAzGLtiREhmyyQCNpFrMBJPk02wyAQ+Diiy8+2G5zFUGdmJ2qseo63q4goZ1P4ib0Ye4IKoEFkAADb2hXJ74+P5+2ANMhEY+QvNYgNp1ThCLxS6oQa/vc3pjUTVUjiSkKGx5BS3RX0ea4bRj+SdieakHsARJo1ifVUaYx2hWEMp61DVhZ5zyQiJAE5VQ9KsTJMpkeHRJNljWTEfYCVP9WfrCKYWXj1nGMRkgQpG2dqjEJmzkze8AyB1aGIJY9LjUkYKFhiAHLT8QeGHOgjt5KHpMVWBZL21IfxFsqtAqbhzZQiTYmToRnYzKVN5SBBliP1Jr3IYccEgONuB+WgSZrb44JpCEFq3bAJHo5Wq8IYgaAsd1228UIScsTnyZPQj1AVwZMmmDZuTLmdXIs42dpS9srClzRWMVsYDKH9gGt2/h39I73R3VzVb/Sm7ZxsFYNA5JCUBPguwQpmnJmk/ZaV59Wpq+MZtczn3VN3lh/0lCOWKr7kNVp1WiY7RQBh3Jz/ltEbQ3X13m2uk86VytgBrWqV/qlMQ/nn39+XK9htol5+t6KP28mWmkQvwDkFVZYoVQL25lk8Rrmi19txVA0ASNfVp4shG9903f/bL9PwakydMdtfJpjE612wBKRJmwCfMB+++0XgVSvjgGWBmmyQGylPSQWWB6/rau5tyiWMFQ1YAmivElAQ2P8ZICMk80FKOkxWcf93fSDEOioprhqJm0eB5jiGaEtEyEgkTUQ+jKXzmMYU0lCqxqJ1W+CzCfUXVraysQSLJkJ2yP+TtqY6BYB2ipJ+4FoHCMTrkwSq6ZSy/HGAMMMOTOBx7XXXjsod+YVCrPPPnskPjFBhVErsxgvzsZrlhWD85OgeZ+VZQdtI1i+7Qsy8fyV8J2muXaObE6LZtcL55tsjQGGaMWaghBSStu8d0PNB81K0l0sIWtysu2Oncw1cwyMYmP6BBm2SvhDEWWsRcysgOx8k60xwEyabTcBGX0a1FtahhT3qmkNcsO9Ew2JjiRY+d/mJdvDlBNImQ5rL+vPrgUs8dWEUyorz5A8I5wH5htvvBG301v5lgbxiuYuveveEqWKDoClPa4nnngiLqxZivQocJM0NqZhiM5PmOTauJM94AuAx4dJSzEx6kMeeuihGFnmwaxiWqdMcd+qMdHFdPNLkgD5lu9DuPhhGRxbTkynyNeLxYqa2SmdVf1qfGS26hY9r8BTGSv4oEUmaGJ8mWy2vbYnM0m9LauBSBEkic37uurR/zzTilkERhYC41MyVk/HfdK9xs2ChoUz4ZGxKfNf6W7AtY2kFEAjeKm23u8qoUj9O/1uHDATY9vZeDm3jTbaKAYjmETDVAXTMMyWvwOUymHrH1FacT9NPwtympBeN6Svfmow+BPSX2SYIMG2jyAhvUIp9VH+QFuAprrJOGpNWi1+k3CUMb5477JrOj3W2Hs6EAQsT2Gq+bD1Ynea5GKotJXv/GIzRWU2+wCsWb/lP8nXeWgQmCnhjNlA9vACzcj3oVGAlrNkkv324YvQZxuI8OhHWJRdswStQKlieJNguWejPowzvummm+KrILzsslWden6i+mEcJhcbIeALgeN88km+aRdt0YqMc964+qfzjjHB+iVwBB4sAU1r1Yrjt7q2znPNaVjGDAzlu5bPCifT22bqIL6vko+56ZO/v3F8aFq3tMY0LJaKZT7Jh1TzF0zYsJBMoKCBhtGgRAuQCFUe0JR94SOdK4LpGO2zuWk8gQZfx1QPjdYIYCYlD6cMTgkbhtmmUN/Rzjuc6py4ews4pL/QwpdaO9n+cC4PmPsKSlQ8KeeT0ZdeS0niZI7Ny3gAE0B5vaBAhg9sWiBrN4mYgCnnnXduDBxEcuktnvJvJtmqYSAtcF3aDGx1fW/nMDktKUSkmKo4FHgaehOTM8uZgTVpLEMTsiuz7nkL3YB4nfJrAYr/A8PvsRgCGVtIUlOuabrVrmGINonrrut5XJb/IuH+kY33d/hdVZ6dNNMCWh+vBsI8CeROJZf5U3OB2bbwAaFQSAIXHehlBo2P3wClfUyckj5C542jNM92C8BEuJ57k+j1ph+A3Zs9KGILKJnUpoBrBDA7zsJq/xgg1XZ4ykV9voixCjCaqLwAM5kZr4ugbdtk/1oq+QgaI7JL/rG4TisyChBCeGbNuPpianqWKw9YT9+el70wcZYZntO2VDAf0akI0guZ07uLZTjMR7EO4Wjal9UOmEljBpNmEv7G3PTgdj7LkGcuxtEq5QResCX7YfOT5G666aaREcCzpaF+Iv23IhpL+quafphqm8Sugd9ST6kwKA9YXosJAk2SH3wnK5wlKDRMMML8yXCYi/UaWqSligFKFU1Dcrx2wEivt2ozJUrcpJ5M0qvqlA7Y7q9qtICfwQzrLNKsgAcjmEsZCP+FgeRjplSX692vqqFHwGMLH6OBosBVP+OnNx6UmdzRRhs1o3ea6IcBCxhCxVLYWhEhAgxwEgJNa5c51g6YiYuudt555+gDMJV08kOYJstd1vRzjnYxi5hCS5kfABmDORVA+O8RmORfAfOX6d99lI3rGMCZMODTUqktQsF0Cz7cM0WCaYw8gIIRTfieXq/nvkykcVfJ3vfYxCseyuZTO2BugsHeHWgbHYP9loYyuTJJToQxQ7bd0yM5EqqpWIaGMX0cPe3jUzC/3S0NGiLgYHJtodAUtKFRKXU75sw1LIR/PAc4pp6P9mmnfxkAfT3WCGBAwXwg9bySrv3NfVEa/1IsPsUQAK644orhkUceidEcU8fMFoWgLLwWEDBfTLUgAdhMrFfa5rPsVQxM9/BNWNSpDIvWCGCDT6R9sFoxAKMwduONN46+iLkUTNDGxExAFcFLY7reYp5WeEWDXCU/NDReStlqXn09NxQA6ytJ1dcDg/lJdY/pSkAJ1/km38yd6NT1CcBYnpaZU0GILIbrmNlWWyjVlAy7M10FWBmbUrrIA+APP/xwzPEJdERt/bOai+RbRv3DRAu/LXYFGXNn/kuw0E2t8Q3MJplBs5g0TzlaY/FpABKuq87ydoP8a5NolOulm2jarJlJnTBXhdwkrXWN3dUaRruknSwDvErdv5PSpI9SSknVcDKLQAJgiiyr/F1dzG1inNqTv00QWTUmjfGsNZ8FGCE3LfN/LkWRwvaylvdtZeeH52NdDRjGCyQsIZg5GZW0vhIN5h+6GJ5B6AttXW0SBQ7WZoo3JWmF6sye/S7rJAncv1rr6qADGNZXMh/2uNLr76zNZFpUXQlCutFXVQla1wNmYrIYfJlsusiRH0tJY+dHAFYF/zA8ntJRZdmOvxJgXe3D8vJRBUrV8WEoW0N0678MYIkLfzWAiuh2dVhfnMz/h98jAOsylEcANgKwLuNAl5E7QsO6DLD/A8ErGXlVe4CRAAAAAElFTkSuQmCC;" vertex="1" parent="1">
                    <mxGeometry x="159" y="267" width="108" height="98" as="geometry"/>
                </mxCell>
                <mxCell id="16" style="edgeStyle=none;html=1;sketch=1;curveFitting=1;jiggle=2;" edge="1" parent="1" source="12">
                    <mxGeometry relative="1" as="geometry">
                        <mxPoint x="132" y="311" as="targetPoint"/>
                    </mxGeometry>
                </mxCell>
                <mxCell id="12" value="" style="shape=image;verticalLabelPosition=bottom;labelBackgroundColor=default;verticalAlign=top;aspect=fixed;imageAspect=0;image=data:image/png,iVBORw0KGgoAAAANSUhEUgAAAD4AAABZCAYAAABmMJemAAAABHNCSVQICAgIfAhkiAAACvVJREFUeF7tnDdvFU0UhsdgkgkmgwARRBaIAiFAAgQIqJD4AQhaWnpqfggVf8BUFFQ0JBELKBAWyTY5Z/g+PyO91jBpgy/W3WuPNNq7sxPOe87MOe/Mrt3133Ay4zBNGoeYLeRxC7w7ZXGtAP9Kfcr8rH7c8lTff/78GXk0aVJc911dXUZZld17taOMpGusbkyOKPCvX7+a169fmy9fvphfv36Z379/2ysC//z5016/fftmqMc9v6lD+v79uy1PuY4fP37Y5/QxefJkM336dDN16tRANspmzJhhXMVQRv0pU6aMtOvu7jZk+iJTn9zT02MWLlxor7EUBX7lyhVz9uxZMzQ0ZAEACkCAB6hAuh3Kir6VYoOmrEzdmKVjfagMJQg8V9ojc29vrzlz5ow5evRotHkU+Js3b6xWT58+bdauXWsbYilmQMySlGF1FCOLREcbLpS1EDKWKKeP1PNYG5VhEOTo7+83586dMy9evEhWj46OdWfOnGn27t1rNm3alGzcrg+WLl1qLly4kBUv6lmwHLmO1rOjtdHDALjWNDIy5To1BcBZJzgw1iJeslNTABzQODJ5y3EFHM8IcHKnpsDiACUWigx0KvAgnMXidFXwkBmRHZYNfsOlqSgWEoNyXfIh1lV1vDr1A+Bybgjh89/UAIAi9kNwPn/+bN6+fWtevnxpBgYGzODgoPn48aN9Tt/0C1iW0axZs8yCBQvM4sWLLb2EbcEfqOMzQVcpyEU9clkZfdmjwLHWtGnTohxaHQDi06dP5v379xYsIO/evWtu375tHj58aBkUYCATc+bMsX0BlnYoCL5Oe+oxyxiPemTu6VP7BNrwnCxOvn//fnPw4EEze/ZsH1Op+wB4qVbDlRD68uXL5tKlS1brq1evtpY7fvy4WbRokZk/f761KMLKWpriuTEADWBmCXuFp0+fmidPnpjnz59bhdEXG48PHz4YqHXLgGt95oTjGTunffv2mcOHD1twrUzi6yhw69atf3Wt2YDvYKrXTYHFieOsR6yTWz9M3dh2sq4gZdshEzNptCkazphOqX3yaAdsl/ZR4O0i3L+UoyOBEwWK+EhHAidE4vxyKQCOV0djTU9EhtzuMurVIRdlDiGYTlKUrppm3PPcjeESRvuAXNQYreIJsblNVgC8zIAQDBjbu3fv7JTSySqkA5IhZka5mBZXiAeEg0xIgguIIaIUKcm/0lbkp1Wbp1rAOXq+ePGiuXHjhtWqtIvA2pxwRSkwLBSijGIBDXjxdIgKZZpBmin0TViVosTP4Q+0hd7WnTVR4AzMlGW6AsZPLAXKoalyIggzd+5cm9lszJs3z16xcmra0RZHxMyAfoqeQlH5jdIAxswAJP2gUNKxY8fMoUOHapOoKHDRVlhcjI5ioSNHjlhLYJG6WncpJ0rcvn37XzpGwSiEDRBcnZ0emxfkQ6GjccJR4L6F/XtNOb+81fdYevny5Ta7STE6pfCiGE5ftYC3GmDV/lKA1Q8zoWg2hAu4qhRtWB+/wTLNpY4EngOsZxPAfS2Jefnl7XDvhtu68kQtDmjWiGJm3c5b3U4Eh7eghDfif90UeHVRQ8CTYwlKSnzVSQ1kRlTSpahumWgoZSS8LoplDP3mKoWLQFEXwGSdxV27ds0eYsIlCHmxVHmTIpoIUUglKCsHjf3D76HxoC5YKUHnZsR86ChXhCSjXJQHM2McMoeXZEiLvLIUI+AoiTYQp82bNydBozzGz220khZPgaYcQsHRLsfJz549GxEcAHByNi/8BqB4OUyLDNNDOdrYAJSMsABDMVIUNFiKpC9YJGPD8FasWBGl08gHFS4KZwFwGmotpaY6wiDcmjVrrCDaqOgbFZ3XxXh+TqFj+SwKHMBYJKc1gK9bt24sZW3pWFGvrhHKcN6WSjOGnWWBj6EcYz5URwJ3Q2FKowFwvCeZdd7UqV5rk0JMJv6VCQkpbTahPLC4gIs0NAFEHRkD4HU6aWKbaBwvAqL1D0HJnYbgZGBleslPfciO3rS6R8pFY7b6eRK4Ng6xAeHZ7I7g0nz1AFPT+TrER6enUNfHjx/bw0LKAA5thfxwGsvJKb+hqSwx35mKb8vhcqUeyuMUN/cpCGPlmGMSOKDwjn5COED39fXZj2TXr19vBWDjgrLg6mwkEI6ZwfcwCICV6VNbScoALAUAiGfMDn1Lw9ji6yiXcTiy5kwdvs7YqRmXOtIWngA4Amnr6IPmHjAoBCFWrlxppzLn4ABHIASkfOfOnWbLli3Z1zjqX1tOdmd8NMQnIBwl65t56qFIZot2d5SlQNOfZkkMA2UBcG0nUw1QyrZt22xW0nbx1atXFjjfwlT9WgILocwlS5b89fmHNky8skIhZBSEIlLAWVZFhygB8CJNxRTCLNFblNjz0ZRpXfMxEZl9eFECNMsul5LhDCumtqW5DpvyLAncdURNAVNFzgC4nNu4s3iRc6ui1XauG1i8nYVtpWyNBy6mWFUpQTgr2wE+QFtX+QOuip/EX0KKH1Z0FE2YYlmJu3PNESdfLkgUdJiPhuENMLkq37XWBg4VvXnzpnn06JE9lBTPFqkQ8UAZ2owgPOAgN+LhEB7Ii46f4eC8LEjxcCwMU7x165a5evWqHZ+jbuL7qIAjGEJJcF/TukfjDHr9+nVrVdoBQm82UAAAAeVuGPSmhOfaD2i6Miabng0bNlgevmzZspEPddkDsNnhJca9e/fspyIcbZ86dcrs2LHDEqgqKbC4vDpgcsfLDHrixAn7LYqIDvW1CZEQWhJaAvTLEtEy0HLRmxX4+YMHDyxPRwn0B0WFDmNp7lHKyZMnLWBmSJ0UAFcnRcCpp1dCdQbOtUEZAL1//765c+eO3bAwe/bs2WP3CEzr3BdPzL7clpSxk8Bzgv3rZ4BkmpNZv8walkYRGMlFe+prJsbkbUvgrqDapMSET5WhIJZWbocWBV5Fu/7gcoraEyOEPL1ft1X38gFMf615hdjUGAFwhFR8TTVyy3FoGphDBMKcTm7Uj3uIQJjSgQLPSVJ0kYIEBqViTRwi3h4/wPv6AwcOlPbuAXAEwTkgrJ9wOoQRiIPAYVEOCXhdzDOA4xhdEIQ0rEHIwSJcibkA4aiJvgCiAwTGl+NUnNcRFKAFHAfIXzyRd+3aZaNAWT8QBe4D1j3CEUv5jwJYGTAcDiAc76uJv1gUoApjPnNTX5RjLfrhjI4rCuTKOCiefkR0uOc3SkGp4ggcd+Hpd+/ebU9vSKqXwmHrpB66pEN1mKJQw1WrVtnB+bQzdwSU6tsvlxVRFmd4KEAf/aIIfTXhOivkAzR/2A+n0LKhbynMH8e9TwIXtfQbMwWxbisTStQ6ZwlUoZ4xOehLyow9pyy5OxN1TTVs53JmIUspF86iwJsMGoPIEVYmMKlpXsbKTLGqqSiMVe2vzBY3ucYJMWwKcGhsDIjXTB9+M4UUU/ktsOL3VcHLc7sKwHlRrrXPb5EheW3V0VX9EOYIjTk5osAJT7z3On/+vI2neFiBx+vSKcABqt9YBSW4e/OylhJvcGMwILCcogvTV6FMoY0y5KMuv7ni0ZGdFw8xLiKZosD5mon/mMM7MoCgCEApA1gkwv9dFqxbT5ZSmXwM1nZ/c+/WlXL8pUKY3bhxY/Z/2HQNAwgWJUUuPZRlUYIOEnju/tYeuw5wLOPyAdfa7m8Aqi7jcO+D1viaKannUeB1hG9am2g4axqIOvJOAK+jtSa3mbB4k61XR/YJi9fRWpPb/A8rkuXPxQOLuQAAAABJRU5ErkJggg==;" vertex="1" parent="1">
                    <mxGeometry x="-104" y="267" width="62" height="89" as="geometry"/>
                </mxCell>
                <mxCell id="13" value="Prompt" style="text;whiteSpace=wrap;fontSize=26;fontFamily=Caveat;fontSource=https%3A%2F%2Ffonts.googleapis.com%2Fcss%3Ffamily%3DCaveat;fontStyle=1" vertex="1" parent="1">
                    <mxGeometry x="-104" y="211" width="75" height="30" as="geometry"/>
                </mxCell>
                <mxCell id="14" value="LLM" style="text;whiteSpace=wrap;fontSize=26;fontFamily=Caveat;fontSource=https%3A%2F%2Ffonts.googleapis.com%2Fcss%3Ffamily%3DCaveat;fontStyle=1" vertex="1" parent="1">
                    <mxGeometry x="175.5" y="209" width="75" height="30" as="geometry"/>
                </mxCell>
                <mxCell id="18" value="O que é LangChain?" style="text;whiteSpace=wrap;" vertex="1" parent="1">
                    <mxGeometry x="-131" y="414" width="139" height="36" as="geometry"/>
                </mxCell>
                <mxCell id="20" value="&lt;div style=&quot;color: rgb(204, 204, 204); background-color: rgb(31, 31, 31); font-family: &amp;quot;Droid Sans Mono&amp;quot;, &amp;quot;monospace&amp;quot;, monospace; font-weight: normal; font-size: 14px; line-height: 19px; white-space: pre;&quot;&gt;&lt;div&gt;&lt;span style=&quot;color: rgb(156, 220, 254);&quot;&gt;output&lt;/span&gt;&lt;span style=&quot;color: rgb(204, 204, 204);&quot;&gt; &lt;/span&gt;&lt;span style=&quot;color: rgb(212, 212, 212);&quot;&gt;=&lt;/span&gt;&lt;span style=&quot;color: rgb(204, 204, 204);&quot;&gt; &lt;/span&gt;&lt;span style=&quot;color: rgb(156, 220, 254);&quot;&gt;llm&lt;/span&gt;&lt;span style=&quot;color: rgb(204, 204, 204);&quot;&gt;.&lt;/span&gt;&lt;span style=&quot;color: rgb(220, 220, 170);&quot;&gt;invoke&lt;/span&gt;&lt;span style=&quot;color: rgb(204, 204, 204);&quot;&gt;(&lt;/span&gt;&lt;span style=&quot;color: rgb(156, 220, 254);&quot;&gt;input&lt;/span&gt;&lt;span style=&quot;color: rgb(204, 204, 204);&quot;&gt;)&lt;/span&gt;&lt;/div&gt;&lt;/div&gt;" style="text;whiteSpace=wrap;html=1;" vertex="1" parent="1">
                    <mxGeometry x="88" y="431" width="289" height="41" as="geometry"/>
                </mxCell>
                <mxCell id="21" style="edgeStyle=none;html=1;sketch=1;curveFitting=1;jiggle=2;" edge="1" parent="1">
                    <mxGeometry relative="1" as="geometry">
                        <mxPoint x="447" y="313" as="targetPoint"/>
                        <mxPoint x="273" y="313" as="sourcePoint"/>
                    </mxGeometry>
                </mxCell>
                <mxCell id="22" value="Answer" style="text;whiteSpace=wrap;fontSize=26;fontFamily=Caveat;fontSource=https%3A%2F%2Ffonts.googleapis.com%2Fcss%3Ffamily%3DCaveat;fontStyle=1" vertex="1" parent="1">
                    <mxGeometry x="485" y="211" width="75" height="30" as="geometry"/>
                </mxCell>
                <mxCell id="24" value="" style="shape=image;verticalLabelPosition=bottom;labelBackgroundColor=default;verticalAlign=top;aspect=fixed;imageAspect=0;image=data:image/png,iVBORw0KGgoAAAANSUhEUgAAAD4AAABWCAYAAACXZiVzAAAABHNCSVQICAgIfAhkiAAADhJJREFUeF7t3EerZcUWB/Dqts05Z21zzgqKigoiijowoSAOBD+FUwfiZ3DmXKeKIjoyR8w555yz7/WvHv/DvvvsdLS17739Coq9T8X1X2vVWqtq171r/rMhlc0wrd0MMVfI/we+uUl+XQBb6n/++WdZu3ZtWbNmzUbjg3GTjZ952uUmTFnf5OhqZrRuscUWlWZp3bp1dYwp9M+Af/DBB+Xzzz8vO+64Y9l2223rgO1swDDGMyD++OOPyrT2U9kvv/xSfvzxx/Ldd9+Vr776qvz000/l66+/ruU///xzfX777be176+//lrb6hcmmSNpu+22q7TttNNOlY6999677LbbbmWvvfaqYA844IA65j777FN23nnnPv79j0mpvf3228sdd9xRvvjii7LffvvVAXfdddf6lE2yyy671Em32WabyiDEfvrpp5Vh+n3yySf1md/egQoIEomEAmLrrbcu22+/fQWddojHAE+5yewm870bz7jm2XLLLYvxbrnllnLTTTfVur40k/jNN99cJfjII4+UCy+8sAJ69tlny7333lu+//77JdI3UTLwshTCMxmCMSsJWIQ12/3+++/ls88+q0RvtdVWlalhrt8y6emrHJM8SV6ZOr9vvfXWsvvuu1fad9hhhzrHJOAIkr/88svy5ptvVtC4ePLJJ1cNOOigg8q+++5b1ejAAw+s6oVIoKlxniZsp99++60yKmuPtmRdAgZAtKH9HCK+Oc/9999fPvroo3LBBRdUmi+++OLKiL40k7gG1Ms6vOaaa8ptt91WuYuQsYQZmzodfPDB5aGHHqoCkJu2oYu2JajSKSrU1WG5lh155JHl7bffrsbTsolG9dE7F8D88MMPxbpbaWn//fevtuj111+feaUhDHPAqQjgY6oyNOimqOPKLM133nlnEu1LgMfa4txKkzpLzuCS+JQAZgnwqDkrvNIkTssOOeSQ8swzz1R3NuYNlgAPWEFDfPPfUVsaZJwuFzdlXFrH04j0+HqCGRLI+vXrq0sbapN5O30ViS9CrIn0YVETgZnAb8CpnoAjllb7RFzcZayw8FX/eBcxxfvvv1+zqPDss8+uuc/Fijf02XPPPUf5OgccUQieAhxY9oBUPv744/LSSy9VIgEwTuIAY5FWABlf8IMZiOSDBRsvvPBCeeONN6qE9VF+1FFHVbCkKcAaWr8MHJq44zFVXwI8KhIj18W2MAZgG5v77ruvgjXpiSeeWM4666w6cReBpCnKEw6/+OKL5eWXXy7PPfdcjQjtBagzpvkt1MUUDAFGH5qR0LVrfBJX3owSuzAomwEHNm7MGu+TuLpHH3205gARL5PiY489VnMSJoXAqPcee+xRre8555xTrrvuuhpnA5REK8xB6h9++GF59913K5NseMx36qmn1nC02Sd9hdXmS+4DPQcctwEeWuPid2v1xhtvrBIZi5CGJu+qo6KWiCwoOeOMM7qadZZhamL/Mbrm1rgRh9wZlZSXYwIa+D7j16R5LnJTGWu8HMEN0UTKWedD7dR1Ah/rtFzrAWczpqQZcMYnVn1Kx+Xaht3psvhtepcAZ9UZtyn72fZAy+U3jzElLXFn3AWpd21NMSWRFeMXJjW1JD40UZmAg8GZYmymEDuljfPBKanTqrc7Ygh/KmARZHzzzTc1EOFvm8CtMcdKcUe4j5AcNWEAZojaMGSKSjZ98pT2xh3ySsE2Cbj49+mnn64h5mGHHVZdhhPYZoSGATTCJsEpKyY9//zzlWGYZAlhAN9sDOGosoS3YUjb//oNsKeMaUPxg/BZrEEjMaEvzQE3SdvIOVNzDiepQzCXJ5pqBj2iLWU5YmYrwiTvNOWtt96qERmmJDLTDxgaglhRWU5RvSeEBkZofO211w6CMt7YecIccBNmh9TFLbukhJP5CKE9NUa8LGYX5GSN952BYQZ7QiteffXV8t5771Xm2E/zx05zjcNmhCFTbIYx+0LuXlVvcrgN3GAPP/xw3TAg7LTTTqu7Jsyasv7a4wHE7x5//PE1JwHvJEWMbk9AqywTewIaJM73uy9R98kSB0pjkmuvs0yg/Iorruibb6OVA4ipsmR5YQbDavvrt9zH7HigIYKWuDOcpUp9wIcG+ifrALRNlY844ohJU9k2DzFnVYWsTY5waUNp1QK3NIbSqgXOsg+lFQM839SHwDTrJlv1KQMKTERhjEbbAMbS9o2TIKSvvl2eaI3L42J9DT3zzDPr2fnYQaKxxtb4XADTJqD5W7QlcyvZiHg2mdAkuOlusqkZGr9ZZ0yAE8refffd1aoDxPPw40NbUGHrkFWfAddIJGXCPv/omNdxryCG6jUjKnG7zUkk1HaLORo2fpgGqPc285SjRVhsn8B3G9vXUCGvdPTRR9dv4X915zcDntNNm4A+VTKJ4EKUxU/y+6IkTzs1RCZ4yF2WMBFjJWPIifYwCFO65kST7/Us9A033FCPrvUl9b5Aa2xtVyLQkRfPqEafxLVB8NQgojl23sX1GJXPQdn7Y1SYk7aY4ozd2XqTJuV9acyap99Ca7xvskXKEZ01uki/qW2nSnzOnbG+QxKfSsBybzcHnBqypl1rbrmDWYS+OeAxHKtd6nPAF+Hacm47JrhVC3zI8hPYqgXu+GpI6nPuTNCgQ7MT35uIa2iwtuqL6+Wc16tPlCYAIZUENAyq90XGb8+3yO854Kx6OyoSkYnPhY0CCtFdk0DM0k/GIL40Z/A5iU1wFKBA53w97yK4tDNOygVNsvqhkLoJfMwrzQHvCwfdXhAVHXroofVs3JGz37nFIK4WfQllxfGPP/54PS62m3JAGEJI3xzaOYMX6jbDX3EEhsjU1QcJmxOhcjYmLgA0N0ZdkrZ3GEpzwLsaA3n11VeXV155pdxzzz3lwQcfLMcee2yVKokC6NSVtNQh9vTTT6+/AdXOezJwCJeBc9IaxlD5LAGMxRRHz2J2DD388MPL9ddfXxk/tCzGjNsk4JhhktxQeOCBB6pESQtA90hJCMBTTjmlXH755VXKQ4TlVNfy8E4Lcp5Pc/KJyvbS9lM79TTLbg2zh9TZshhKc8DHtqakhOMkDLhPS24rIcxnoauuuqpKcAg0grKGxyTTRXzsQFddysa+k88Bx1HEdK0ha8zWMAlXzz///Jr/zTTGVLSMubM5P55NypTB/02wi8wVzzHUZw74UOOVUscDAD+UViVwPr9rqTYZ0Ql8apAwxNFNVcfw5XxviIZOfUiENNSxq45HELVxTWyF381jZe6HCub0dFE7wp05fxPQGKMr8S4s+piqdwLvs+rNiQQWPhfn78rUAQx4jpLbwGN0PM2BETyFMFg43McIft0Jq2CJD7/ooot6Xaa2uXrSxZiUdQIf6qCOFPN3aYihXhIgAhkTJwIDMIBIDMP4f/0sKdqVS7uisdyKMJ62/tTCZQRPOYarj0n60Yihem0WAk6CPtiTso0LoMccc8ySNdWcsD253xjiKQNOkk8++WSNyNx+wASBEO0RproZjXn+kO6uu+6qf1M2FpW5nzOWFgJOhQEHGmEkbZOSFKBdgNMma7PJBCEvLRIBugFx3HHH1XvrNEf46zgbAzBHiDy0fo0zFrzMSbxNcJtrOH3ppZe2i+vvqHvzmXf1MXI5P1cHiHKqr9ydFzTYWT311FPVOFpSNiuAX3bZZXUpDSXLw45wLM0kTu1IY8z/9Q3YJ+12+zE1TXtSBzjXxVwLGfpWph9m0kaGciwtAd40RGMd/416ANiQqYn25GvuWJ+F1njXYPlmRlusrfbpTFefjVWWL6LU224R8LGbEJm7E7i11VyfbULVcTEu6Jlcpi3WZqw2A4QR3I+MIV3LqGuedlkCIu4wGVifrM2pnitEN08wZavbCZwUDSLxtw4YTIijOQx44oknarmJXdFUri0mZL3n+MihhOzjnzF4B+ASyLQZ0gYeQSRAMldiAUdibl2a09wMZvOqaVtogxIPYRpRHa6FdTUJIvlJk/hGTZr8uYmBk7wLHbm6aIYwko9mvRmgXLtMNEdTtKEl3Jj1HYZgoHbK1DOQaCBdf+vuJqW2aAxD+wDPAUdsADRVff2Gm4vuj7qYazKW9aSTTpqFmCaKT8+g+iPEmJ6I9q5tgDtoxAAqq32iPgwAMCGtMfVv7h9Im7a5+XjllVdWCUs0ThpzeXXM2nJDQmDcmYGpZMoRkQNHAKLK6TvVRWkfaVkeSTSMhtAOsThJuteauUJb5o3Ku6Hh0DNnbznUXAh4U+JZzzPKNry012Gz7u++R90dXcvtlAAnSzDGst0uqv6XjBuADESMW3vwTfGbBKdIMRumoZ1e6J+pOtVisKhN1k8u+MT6UlPLQdYukmqr/qZgjjlzwXfsY4K2M+COiakKdXJmbs01t5e5OO8Z42MC2W9M8Z7PPanLM4bzn2QKmqWFgNsg+ALCpTAe/kaUumNErDyDF0ttSQBjPWGQyfT1LluH+fTjnRvSJgEORkVTEipHi5SnPnWeNEz/WPkYY/3kc889t9x55521zViaSdzfcNoHs94nnHBCHQhohg4jgE8Ela8fGBFXFkvLZelD7WRtlSWc1cfmw/hcG3sCiD6YGaCYhAGeyq1xdXk2PyR6V64dhr322mv1Pp45+tISd+ZjAb/NTSC0mZoRVxjQLMOYaAYQscDZehoLE9gR7gp4NsS7NsqVeWfF/fY0l36ycT2NHRowQ8bc+HoHG5dccskg8DUbOsz+i5QoTeemGvZxbGOUmzoMAyYfCe2wBDb5tk4zoh0Yk5A1jDaOck/2xmnNeeedNx34xgCzUsboPFdfKcT/HTo3W+D/BXyQonmeuGJjAAAAAElFTkSuQmCC;" vertex="1" parent="1">
                    <mxGeometry x="487" y="270" width="62" height="86" as="geometry"/>
                </mxCell>
                <mxCell id="25" value="Output" style="text;whiteSpace=wrap;fontSize=26;fontFamily=Caveat;fontSource=https%3A%2F%2Ffonts.googleapis.com%2Fcss%3Ffamily%3DCaveat;fontStyle=0" vertex="1" parent="1">
                    <mxGeometry x="477" y="361" width="75" height="30" as="geometry"/>
                </mxCell>
                <mxCell id="26" value="Input" style="text;whiteSpace=wrap;fontSize=26;fontFamily=Caveat;fontSource=https%3A%2F%2Ffonts.googleapis.com%2Fcss%3Ffamily%3DCaveat;fontStyle=0" vertex="1" parent="1">
                    <mxGeometry x="-108" y="365" width="75" height="30" as="geometry"/>
                </mxCell>
                <mxCell id="28" value="&lt;div style=&quot;color: rgb(204, 204, 204); background-color: rgb(31, 31, 31); font-family: &amp;quot;Droid Sans Mono&amp;quot;, &amp;quot;monospace&amp;quot;, monospace; font-weight: normal; font-size: 14px; line-height: 19px; white-space: pre;&quot;&gt;&lt;div&gt;&lt;span style=&quot;color: rgb(156, 220, 254);&quot;&gt;output&lt;/span&gt;&lt;span style=&quot;color: rgb(204, 204, 204);&quot;&gt;.&lt;/span&gt;&lt;span style=&quot;color: rgb(156, 220, 254);&quot;&gt;content&lt;/span&gt;&lt;/div&gt;&lt;/div&gt;" style="text;whiteSpace=wrap;html=1;" vertex="1" parent="1">
                    <mxGeometry x="457" y="424" width="163" height="41" as="geometry"/>
                </mxCell>
                <mxCell id="29" value="Modelo LLM" style="rounded=1;whiteSpace=wrap;html=1;fontSize=14;sketch=1;curveFitting=1;jiggle=2;" vertex="1" parent="1">
                    <mxGeometry x="-131" y="113" width="160" height="60" as="geometry"/>
                </mxCell>
                <mxCell id="30" value="Agente de IA" style="rounded=1;whiteSpace=wrap;html=1;fontSize=14;sketch=1;curveFitting=1;jiggle=2;" vertex="1" parent="1">
                    <mxGeometry x="-131" y="549" width="160" height="60" as="geometry"/>
                </mxCell>
                <mxCell id="31" value="fazer uma pergunta a um modelo de linguagem" style="text;whiteSpace=wrap;html=1;" vertex="1" parent="1">
                    <mxGeometry x="45.00285714285735" y="124.99571428571443" width="280" height="36" as="geometry"/>
                </mxCell>
                <mxCell id="33" value="&lt;strong data-start=&quot;184&quot; data-end=&quot;220&quot;&gt;um agente com ferramenta externa&lt;/strong&gt; usando LangChain + OpenAI" style="text;whiteSpace=wrap;html=1;" vertex="1" parent="1">
                    <mxGeometry x="48.001428571428896" y="560.9971428571431" width="386" height="36" as="geometry"/>
                </mxCell>
                <mxCell id="49" value="" style="shape=image;verticalLabelPosition=bottom;labelBackgroundColor=default;verticalAlign=top;aspect=fixed;imageAspect=0;image=data:image/png,iVBORw0KGgoAAAANSUhEUgAAAGwAAABiCAYAAAC1bDa9AAAABHNCSVQICAgIfAhkiAAAF3hJREFUeF7t3XWw5UT2B/Ae3N11cHd3XaBwKNytsIXFHaqAPyiowm2Rwt11F3encHdYYHF3mYFfPv3oIZNN7rvvTjIzl9901a37bpLunD7fY336JK/f71kLI1rXcGCkrqF0BKGRAyMA6zJBGAFYlwE2SpfRW0nub7/9FgYMGBDPjzLKKGGkkf6astj1gImZfv755/D++++Ht99+OwCuf//+Ydpppw1jjTVWJcDdeqLrAQPWAw88EE488cTw0UcfhZFHHjlMPPHEYfvttw9rrbVWGH300bsVm1K6u9pu0Kb33nsv/POf/wyTTTZZ/D7ttNPCXHPNFU4//fTw8ssvl066mw92tYbxWf/5z3/Chx9+GPbdd9+w8MILh4EDB4ZRRx01vPjii+Gpp54K8803X+jXr183YzQY7V2tYWnNL8DwN43z7SPwSL//MmhlE+kKDUvAACBDI4yU+SmNv5p66qnDpJNOGq666qowzjjjRLBuvvnmGIjMP//8g2mXc7SSFgJU/27Tvn7ZJIb71BQSv/nmm/Df//43/Prrr2GKKaYIk0wySQzdf/zxx3DnnXeG448/Pv4NgDHHHDNss802YbPNNovAOAZsY/Brn3zySQR6ttlmiyD3WMzuMJvDPWDA+vbbb8Nll10Wbr/99gjSTDPNFHbfffcw1VRTZXomrP8lvPTSS+G8886Lof0RRxwR5p577sEiRGDRvMsvvzwCapz11lsvrL/++hHUbmnDvQ+jGQKLG264IWy99dZhn332iRpy2223RfMXQr8IzCyzzBIWWmihCOa8884bRhtttEEYGOOzzz4L999/f1hnnXXCCSecEP72t7+Fu+66K/zwww/dglWkc7gXLaBg6hhjjBFBGXvssaM5+/zzzyNgzF3eqpdZ+OSn+C6f77//PvYBarf5sEYBI9kYhCmdOnj9pplmmjDRRBOFc845J4w/3njh9ddfD3//+98HMTsxnRcqAwwdv/zySwxErrzyyvDcc8+F7777LqyxxhpRAPra3CNFoEzr0EyDNQaYAOCDDz6IaySSTCsmn3zylv4CuBjrm5mzngKGfnvttVdcGMtqHH744WGxxRZrSzuSObzjjjsimDvttFO8B21lOoHoGjS6X29N0EO7zeunn36KwY8gqCd4aT5waQQwTLj77rvD2WefHT799NPIWNmHXXfdNcwzzzylEgkkTLDY/f777zKGzhoDB6ZQUDDzzDNH//Pll1+GZZdddhCYg2lUyQIZOM8++2ykZ++99w5LLrlk1HbhvajTOfQCcI455miZygKWKPOiiy4Kjz/+eBiYjTHFlFPGwGXNNdcM42Xa33SrHTAMZLKOPPLIGATstttu4euvvw5nnnlmOPbYY2PqqDgxfb766quYTnrt1VfDRFku8OqrrwkHHnhgWGSRRSIPir5mkBn8AyS/ix/9CAKQrdWMlRbZ8o7nnntujC7HH3/88O9//zsKlGxJ/l5oM4ZGoK6++upoUrfddtuYDrvvvvvCpZdeGvOXApmmzWMjgInGSOPBBx8cTSGTQ1MOOOCA8NZbb8UFbb5hCgY++uijEVTh+sknnxwjwSIDB+vY5g8A0KrEzJTSeuWVV8JBBx0UJphg/HDBBReGe++9NyywwAKDzDbtFJF+/PHHcQ6vvfZaBGvdddcNW2yxRRxvuummCyeddFKMQJdffvmWGtomuS0vawQw/otNT6E1QGiVCQKyrGGq9dEXX3wRwXWd300092Jm0Uf7khblt2OYSflIGZQ333wzAuFalmDccceNZOlnHIELeoHadKsdMMygQRdeeGHUkOWWWy6G5dZRNEfEV2z6OEdCTz311OifgLbVVlv9jyks9u3kN23rn+2Z8as0GVATTjhh2GSTTaImErjnn38+ggWE/fffP5o8OwP8FzPIvxLKxx57LK4T11577cHWfp3Q1U6f2gGjRYsuumjMIvBX119/fXTw/JjshIiq2ADGj+y4444x6hKsnHHGGZGhTTT343+23HLLSBszLSCZccYZY+Qn8JERmWCCCSJNPRmVEPsQPtHqoYceGq2GiJGADg3/hRe1A2ZQJgMDSOFxxx0XZp111jjBYjI2DwYmMi1CbYyiiY411YxNQ/gg5i/djy+97rrrogBZ61lSaMwfE81iOGZ5IWUmslx66aVjUNMkvYkPjQBmcNK3+uqrx3B6qaWWait4SBMufieG9QYepva1pXvp60ODmES0A6YIAlNN8Oyzpeaa4nV9paPd6xvPJfIJUkGpQKY3whLjeruu7HzqWzZGYmorxuqXAodieF7slx+veK6MtrqONQaYyZu0sN4iU0g8YEB5hJifjD5lGQdMAX7K/5Vpk74+ReD0KxvTfZ1L2Xr30D+/BMjTVgQp/a4LjHbGaQwwkxEKc+x8hbWKyCulgkiyT1Eb+D9rL0xM55LUi9RkSoxdBAWj+RHZ+tSS0DBtKYDJ9wPMlFmmQhYlAS1ilPXgR3trxrKoTvPo7fo6zte+H2YSaU2StMHiE2C+AYjxGsaLClP0JY0FUB++Im+WEnMsZtP6LG+KnBfhDRw4IAtebEr+CSqmpvxksU/agU7VVUA0PhrzWzRFZutnXSZIQSehkKDO01zsU8fvWgEjaRK+UlMYO8MMM4T+2XqHtpic9JTcnQhMc3yVVVaJIbHUkLUaphcbMFIbxHBBQvHCP34nsGKMmQHXW8uPL1haPlsPWpbQ9jLtcT2gbrzxxrgOA+yCCy4YNtxww6jlTbYaAbON/2046qijgpQPDWEKpX6sbzBRGCxrkAIQxyaffLK4Y7zBBhtEM2fbflg1WggI38ccc0yYc8454+9kkhNdLAjBU5oAJPMRDauDFF022WoM6/vF7Xn5QGsvpk7u8MEHH4yAaSQ2Hw47hhlPP/10NJe2UGx/AHKQlrShIXUxSDh/6623RvrNBXDXXHPN/6TTHLdgNh++UVKACZVWa7rVCFjP4pLTxmxSyFSopQAK35A3PWlijjmvj4Wzz7ACDI2sAj/EXFsUy8oX6QYYQCWLpa9cb56zz968dagVMD5LxGXbwsT5MmZFDi5fMp0YABimUysypWlJ7W184AmGpNLQhtZ8o1kCDflS4PJ5887752K6t/E7PV8rYBw2M3jPPffExTKwbrnllpg9YD7SpNM3psgaJK00iaRdqqGGdQNUlSARSBupSyyxRLxm9NFHazxCxI9aAcNsC+XNN9888pqp47Pk3ZjIBEYCLC1S84zJa18CzTjMUJ0t3bu3MYualb+ewCVTbykiqNIIZ7IcvY3f1/O1AubmGM55Y7L1jGQu0IpmJQEDiCeffDLSnZfm/Pm0VOjr5Kqux2SmzgK5t3VTnqaq8fivZ555JgZPzCOrYfHfBGi1AWZiQLI3JKNhHSZLz3GnBXTZhKsYQrKdsy5TQKrkoAhq2XjtHGPO1GEcdthhgxbHRU1ybxqTNjirxiVw6jysIdP60rKGeyCsdbfaADNhkmYDUojOL9kL+8c//lG6aZmAEoxUgZYAUpKmYIZAtLq2XeZgpp1jY/kUwfKbCQcEH1xMXOdpABjaaJP9PgBfccUVUWhTGq1dutq5rjbA3Ix2MQ2nnHJKXJdYVwFQ8FFkikkzRxbK+eyA64rXponUAZaxiuMXfyfarCVpCUEpa/oBk2YJ89V7CLBYl0knnaSsyxAfqw2wJKkkLZkR2mMyJl5kCspHyiZcFj0O8ayGcAC0yu5LJFumlNHecwtu4Pfw7rvvxgW2jU9z5gYWWmjw6qshJGlQ91oBk9EgkRdccEFcAHPAe+yxR+if5ROr2m+/Dcyc9TM9EWTVRUP5eF6Tq8FClO2YfnHXeocddoimkdWwe91JRXE70+wIsJSZyE8GoZy5hxWkpwQL6hItpuPUMqkta2U+pOy64fmYubMkxXrLRHMSgCoe9GVufQIMCIop5c6ovpW+aqNEiG/+SBWs1g6BJlOXb+rLxJu4tjhfAQle2Tbi12gd/hDs4rXt0tMWYBhqYSh39q9//SsSwFeppJWSsQmYB6hTYtoluhuuS9Gjmn4WRzAi1SU7YvuGoHfS2gLMwC+88EI4+uijY+Z9ueymH2XVsGr0aJ0SZ/6qE6CqIrBOJlN3H7R1Sp9lg/Wj5LDwXu7RMuGSSy6JvFpttdU64llbgCHatgNADj/88Jh+ouIiKQQI22lcXwFzfar5q5vZQzIeb+tBB3thahY7AU3C2wODwPKMAB+njv+ss86KhajLLLPMoIV2X2htC7DfM8Ashpk+2+BSO7IXMhl8Gk1Ljwb16eaZpNlxnn766XsWsX3p3OC10s6/ZAtnGQvPk6Xy8nZ9LUH8KltAf5o99SlFZelCq/CO38czAt9XATfltgDrl0VBtOjiiy+OeT9rE9l4DwDImx2SPfQwZgevCUIwB0yKOyG+QcxiUJUewW0XqDw9XqXkSZdXs6dxaJZEArciucCtdBr2twdYxthVV101qnJ604wdV4TssssuYfZsodhbErWKuZzz8AYWWs1HmJ6qp/pKowBDhEjIPUZFs4DIEq288sodvwerbcCYLeXWVvPvvPNO1Iw999wzmjQmMjWpGjlFQJhwq8qj1KevzKgCf3g6jj/KumkqX+aheGm4lVZaqWXJem9zaBswAzGLtiREhmyyQCNpFrMBJPk02wyAQ+Diiy8+2G5zFUGdmJ2qseo63q4goZ1P4ib0Ye4IKoEFkAADb2hXJ74+P5+2ANMhEY+QvNYgNp1ThCLxS6oQa/vc3pjUTVUjiSkKGx5BS3RX0ea4bRj+SdieakHsARJo1ifVUaYx2hWEMp61DVhZ5zyQiJAE5VQ9KsTJMpkeHRJNljWTEfYCVP9WfrCKYWXj1nGMRkgQpG2dqjEJmzkze8AyB1aGIJY9LjUkYKFhiAHLT8QeGHOgjt5KHpMVWBZL21IfxFsqtAqbhzZQiTYmToRnYzKVN5SBBliP1Jr3IYccEgONuB+WgSZrb44JpCEFq3bAJHo5Wq8IYgaAsd1228UIScsTnyZPQj1AVwZMmmDZuTLmdXIs42dpS9srClzRWMVsYDKH9gGt2/h39I73R3VzVb/Sm7ZxsFYNA5JCUBPguwQpmnJmk/ZaV59Wpq+MZtczn3VN3lh/0lCOWKr7kNVp1WiY7RQBh3Jz/ltEbQ3X13m2uk86VytgBrWqV/qlMQ/nn39+XK9htol5+t6KP28mWmkQvwDkFVZYoVQL25lk8Rrmi19txVA0ASNfVp4shG9903f/bL9PwakydMdtfJpjE612wBKRJmwCfMB+++0XgVSvjgGWBmmyQGylPSQWWB6/rau5tyiWMFQ1YAmivElAQ2P8ZICMk80FKOkxWcf93fSDEOioprhqJm0eB5jiGaEtEyEgkTUQ+jKXzmMYU0lCqxqJ1W+CzCfUXVraysQSLJkJ2yP+TtqY6BYB2ipJ+4FoHCMTrkwSq6ZSy/HGAMMMOTOBx7XXXjsod+YVCrPPPnskPjFBhVErsxgvzsZrlhWD85OgeZ+VZQdtI1i+7Qsy8fyV8J2muXaObE6LZtcL55tsjQGGaMWaghBSStu8d0PNB81K0l0sIWtysu2Oncw1cwyMYmP6BBm2SvhDEWWsRcysgOx8k60xwEyabTcBGX0a1FtahhT3qmkNcsO9Ew2JjiRY+d/mJdvDlBNImQ5rL+vPrgUs8dWEUyorz5A8I5wH5htvvBG301v5lgbxiuYuveveEqWKDoClPa4nnngiLqxZivQocJM0NqZhiM5PmOTauJM94AuAx4dJSzEx6kMeeuihGFnmwaxiWqdMcd+qMdHFdPNLkgD5lu9DuPhhGRxbTkynyNeLxYqa2SmdVf1qfGS26hY9r8BTGSv4oEUmaGJ8mWy2vbYnM0m9LauBSBEkic37uurR/zzTilkERhYC41MyVk/HfdK9xs2ChoUz4ZGxKfNf6W7AtY2kFEAjeKm23u8qoUj9O/1uHDATY9vZeDm3jTbaKAYjmETDVAXTMMyWvwOUymHrH1FacT9NPwtympBeN6Svfmow+BPSX2SYIMG2jyAhvUIp9VH+QFuAprrJOGpNWi1+k3CUMb5477JrOj3W2Hs6EAQsT2Gq+bD1Ynea5GKotJXv/GIzRWU2+wCsWb/lP8nXeWgQmCnhjNlA9vACzcj3oVGAlrNkkv324YvQZxuI8OhHWJRdswStQKlieJNguWejPowzvummm+KrILzsslWden6i+mEcJhcbIeALgeN88km+aRdt0YqMc964+qfzjjHB+iVwBB4sAU1r1Yrjt7q2znPNaVjGDAzlu5bPCifT22bqIL6vko+56ZO/v3F8aFq3tMY0LJaKZT7Jh1TzF0zYsJBMoKCBhtGgRAuQCFUe0JR94SOdK4LpGO2zuWk8gQZfx1QPjdYIYCYlD6cMTgkbhtmmUN/Rzjuc6py4ews4pL/QwpdaO9n+cC4PmPsKSlQ8KeeT0ZdeS0niZI7Ny3gAE0B5vaBAhg9sWiBrN4mYgCnnnXduDBxEcuktnvJvJtmqYSAtcF3aDGx1fW/nMDktKUSkmKo4FHgaehOTM8uZgTVpLEMTsiuz7nkL3YB4nfJrAYr/A8PvsRgCGVtIUlOuabrVrmGINonrrut5XJb/IuH+kY33d/hdVZ6dNNMCWh+vBsI8CeROJZf5U3OB2bbwAaFQSAIXHehlBo2P3wClfUyckj5C542jNM92C8BEuJ57k+j1ph+A3Zs9KGILKJnUpoBrBDA7zsJq/xgg1XZ4ykV9voixCjCaqLwAM5kZr4ugbdtk/1oq+QgaI7JL/rG4TisyChBCeGbNuPpianqWKw9YT9+el70wcZYZntO2VDAf0akI0guZ07uLZTjMR7EO4Wjal9UOmEljBpNmEv7G3PTgdj7LkGcuxtEq5QResCX7YfOT5G666aaREcCzpaF+Iv23IhpL+quafphqm8Sugd9ST6kwKA9YXosJAk2SH3wnK5wlKDRMMML8yXCYi/UaWqSligFKFU1Dcrx2wEivt2ozJUrcpJ5M0qvqlA7Y7q9qtICfwQzrLNKsgAcjmEsZCP+FgeRjplSX692vqqFHwGMLH6OBosBVP+OnNx6UmdzRRhs1o3ea6IcBCxhCxVLYWhEhAgxwEgJNa5c51g6YiYuudt555+gDMJV08kOYJstd1vRzjnYxi5hCS5kfABmDORVA+O8RmORfAfOX6d99lI3rGMCZMODTUqktQsF0Cz7cM0WCaYw8gIIRTfieXq/nvkykcVfJ3vfYxCseyuZTO2BugsHeHWgbHYP9loYyuTJJToQxQ7bd0yM5EqqpWIaGMX0cPe3jUzC/3S0NGiLgYHJtodAUtKFRKXU75sw1LIR/PAc4pp6P9mmnfxkAfT3WCGBAwXwg9bySrv3NfVEa/1IsPsUQAK644orhkUceidEcU8fMFoWgLLwWEDBfTLUgAdhMrFfa5rPsVQxM9/BNWNSpDIvWCGCDT6R9sFoxAKMwduONN46+iLkUTNDGxExAFcFLY7reYp5WeEWDXCU/NDReStlqXn09NxQA6ytJ1dcDg/lJdY/pSkAJ1/km38yd6NT1CcBYnpaZU0GILIbrmNlWWyjVlAy7M10FWBmbUrrIA+APP/xwzPEJdERt/bOai+RbRv3DRAu/LXYFGXNn/kuw0E2t8Q3MJplBs5g0TzlaY/FpABKuq87ydoP8a5NolOulm2jarJlJnTBXhdwkrXWN3dUaRruknSwDvErdv5PSpI9SSknVcDKLQAJgiiyr/F1dzG1inNqTv00QWTUmjfGsNZ8FGCE3LfN/LkWRwvaylvdtZeeH52NdDRjGCyQsIZg5GZW0vhIN5h+6GJ5B6AttXW0SBQ7WZoo3JWmF6sye/S7rJAncv1rr6qADGNZXMh/2uNLr76zNZFpUXQlCutFXVQla1wNmYrIYfJlsusiRH0tJY+dHAFYF/zA8ntJRZdmOvxJgXe3D8vJRBUrV8WEoW0N0678MYIkLfzWAiuh2dVhfnMz/h98jAOsylEcANgKwLuNAl5E7QsO6DLD/A8ErGXlVe4CRAAAAAElFTkSuQmCC;" vertex="1" parent="1">
                    <mxGeometry x="152" y="708" width="108" height="98" as="geometry"/>
                </mxCell>
                <mxCell id="50" style="edgeStyle=none;html=1;sketch=1;curveFitting=1;jiggle=2;" edge="1" source="51" parent="1">
                    <mxGeometry relative="1" as="geometry">
                        <mxPoint x="125" y="752" as="targetPoint"/>
                    </mxGeometry>
                </mxCell>
                <mxCell id="51" value="" style="shape=image;verticalLabelPosition=bottom;labelBackgroundColor=default;verticalAlign=top;aspect=fixed;imageAspect=0;image=data:image/png,iVBORw0KGgoAAAANSUhEUgAAAD4AAABZCAYAAABmMJemAAAABHNCSVQICAgIfAhkiAAACvVJREFUeF7tnDdvFU0UhsdgkgkmgwARRBaIAiFAAgQIqJD4AQhaWnpqfggVf8BUFFQ0JBELKBAWyTY5Z/g+PyO91jBpgy/W3WuPNNq7sxPOe87MOe/Mrt3133Ay4zBNGoeYLeRxC7w7ZXGtAP9Kfcr8rH7c8lTff/78GXk0aVJc911dXUZZld17taOMpGusbkyOKPCvX7+a169fmy9fvphfv36Z379/2ysC//z5016/fftmqMc9v6lD+v79uy1PuY4fP37Y5/QxefJkM336dDN16tRANspmzJhhXMVQRv0pU6aMtOvu7jZk+iJTn9zT02MWLlxor7EUBX7lyhVz9uxZMzQ0ZAEACkCAB6hAuh3Kir6VYoOmrEzdmKVjfagMJQg8V9ojc29vrzlz5ow5evRotHkU+Js3b6xWT58+bdauXWsbYilmQMySlGF1FCOLREcbLpS1EDKWKKeP1PNYG5VhEOTo7+83586dMy9evEhWj46OdWfOnGn27t1rNm3alGzcrg+WLl1qLly4kBUv6lmwHLmO1rOjtdHDALjWNDIy5To1BcBZJzgw1iJeslNTABzQODJ5y3EFHM8IcHKnpsDiACUWigx0KvAgnMXidFXwkBmRHZYNfsOlqSgWEoNyXfIh1lV1vDr1A+Bybgjh89/UAIAi9kNwPn/+bN6+fWtevnxpBgYGzODgoPn48aN9Tt/0C1iW0axZs8yCBQvM4sWLLb2EbcEfqOMzQVcpyEU9clkZfdmjwLHWtGnTohxaHQDi06dP5v379xYsIO/evWtu375tHj58aBkUYCATc+bMsX0BlnYoCL5Oe+oxyxiPemTu6VP7BNrwnCxOvn//fnPw4EEze/ZsH1Op+wB4qVbDlRD68uXL5tKlS1brq1evtpY7fvy4WbRokZk/f761KMLKWpriuTEADWBmCXuFp0+fmidPnpjnz59bhdEXG48PHz4YqHXLgGt95oTjGTunffv2mcOHD1twrUzi6yhw69atf3Wt2YDvYKrXTYHFieOsR6yTWz9M3dh2sq4gZdshEzNptCkazphOqX3yaAdsl/ZR4O0i3L+UoyOBEwWK+EhHAidE4vxyKQCOV0djTU9EhtzuMurVIRdlDiGYTlKUrppm3PPcjeESRvuAXNQYreIJsblNVgC8zIAQDBjbu3fv7JTSySqkA5IhZka5mBZXiAeEg0xIgguIIaIUKcm/0lbkp1Wbp1rAOXq+ePGiuXHjhtWqtIvA2pxwRSkwLBSijGIBDXjxdIgKZZpBmin0TViVosTP4Q+0hd7WnTVR4AzMlGW6AsZPLAXKoalyIggzd+5cm9lszJs3z16xcmra0RZHxMyAfoqeQlH5jdIAxswAJP2gUNKxY8fMoUOHapOoKHDRVlhcjI5ioSNHjlhLYJG6WncpJ0rcvn37XzpGwSiEDRBcnZ0emxfkQ6GjccJR4L6F/XtNOb+81fdYevny5Ta7STE6pfCiGE5ftYC3GmDV/lKA1Q8zoWg2hAu4qhRtWB+/wTLNpY4EngOsZxPAfS2Jefnl7XDvhtu68kQtDmjWiGJm3c5b3U4Eh7eghDfif90UeHVRQ8CTYwlKSnzVSQ1kRlTSpahumWgoZSS8LoplDP3mKoWLQFEXwGSdxV27ds0eYsIlCHmxVHmTIpoIUUglKCsHjf3D76HxoC5YKUHnZsR86ChXhCSjXJQHM2McMoeXZEiLvLIUI+AoiTYQp82bNydBozzGz220khZPgaYcQsHRLsfJz549GxEcAHByNi/8BqB4OUyLDNNDOdrYAJSMsABDMVIUNFiKpC9YJGPD8FasWBGl08gHFS4KZwFwGmotpaY6wiDcmjVrrCDaqOgbFZ3XxXh+TqFj+SwKHMBYJKc1gK9bt24sZW3pWFGvrhHKcN6WSjOGnWWBj6EcYz5URwJ3Q2FKowFwvCeZdd7UqV5rk0JMJv6VCQkpbTahPLC4gIs0NAFEHRkD4HU6aWKbaBwvAqL1D0HJnYbgZGBleslPfciO3rS6R8pFY7b6eRK4Ng6xAeHZ7I7g0nz1AFPT+TrER6enUNfHjx/bw0LKAA5thfxwGsvJKb+hqSwx35mKb8vhcqUeyuMUN/cpCGPlmGMSOKDwjn5COED39fXZj2TXr19vBWDjgrLg6mwkEI6ZwfcwCICV6VNbScoALAUAiGfMDn1Lw9ji6yiXcTiy5kwdvs7YqRmXOtIWngA4Amnr6IPmHjAoBCFWrlxppzLn4ABHIASkfOfOnWbLli3Z1zjqX1tOdmd8NMQnIBwl65t56qFIZot2d5SlQNOfZkkMA2UBcG0nUw1QyrZt22xW0nbx1atXFjjfwlT9WgILocwlS5b89fmHNky8skIhZBSEIlLAWVZFhygB8CJNxRTCLNFblNjz0ZRpXfMxEZl9eFECNMsul5LhDCumtqW5DpvyLAncdURNAVNFzgC4nNu4s3iRc6ui1XauG1i8nYVtpWyNBy6mWFUpQTgr2wE+QFtX+QOuip/EX0KKH1Z0FE2YYlmJu3PNESdfLkgUdJiPhuENMLkq37XWBg4VvXnzpnn06JE9lBTPFqkQ8UAZ2owgPOAgN+LhEB7Ii46f4eC8LEjxcCwMU7x165a5evWqHZ+jbuL7qIAjGEJJcF/TukfjDHr9+nVrVdoBQm82UAAAAeVuGPSmhOfaD2i6Miabng0bNlgevmzZspEPddkDsNnhJca9e/fspyIcbZ86dcrs2LHDEqgqKbC4vDpgcsfLDHrixAn7LYqIDvW1CZEQWhJaAvTLEtEy0HLRmxX4+YMHDyxPRwn0B0WFDmNp7lHKyZMnLWBmSJ0UAFcnRcCpp1dCdQbOtUEZAL1//765c+eO3bAwe/bs2WP3CEzr3BdPzL7clpSxk8Bzgv3rZ4BkmpNZv8walkYRGMlFe+prJsbkbUvgrqDapMSET5WhIJZWbocWBV5Fu/7gcoraEyOEPL1ft1X38gFMf615hdjUGAFwhFR8TTVyy3FoGphDBMKcTm7Uj3uIQJjSgQLPSVJ0kYIEBqViTRwi3h4/wPv6AwcOlPbuAXAEwTkgrJ9wOoQRiIPAYVEOCXhdzDOA4xhdEIQ0rEHIwSJcibkA4aiJvgCiAwTGl+NUnNcRFKAFHAfIXzyRd+3aZaNAWT8QBe4D1j3CEUv5jwJYGTAcDiAc76uJv1gUoApjPnNTX5RjLfrhjI4rCuTKOCiefkR0uOc3SkGp4ggcd+Hpd+/ebU9vSKqXwmHrpB66pEN1mKJQw1WrVtnB+bQzdwSU6tsvlxVRFmd4KEAf/aIIfTXhOivkAzR/2A+n0LKhbynMH8e9TwIXtfQbMwWxbisTStQ6ZwlUoZ4xOehLyow9pyy5OxN1TTVs53JmIUspF86iwJsMGoPIEVYmMKlpXsbKTLGqqSiMVe2vzBY3ucYJMWwKcGhsDIjXTB9+M4UUU/ktsOL3VcHLc7sKwHlRrrXPb5EheW3V0VX9EOYIjTk5osAJT7z3On/+vI2neFiBx+vSKcABqt9YBSW4e/OylhJvcGMwILCcogvTV6FMoY0y5KMuv7ni0ZGdFw8xLiKZosD5mon/mMM7MoCgCEApA1gkwv9dFqxbT5ZSmXwM1nZ/c+/WlXL8pUKY3bhxY/Z/2HQNAwgWJUUuPZRlUYIOEnju/tYeuw5wLOPyAdfa7m8Aqi7jcO+D1viaKannUeB1hG9am2g4axqIOvJOAK+jtSa3mbB4k61XR/YJi9fRWpPb/A8rkuXPxQOLuQAAAABJRU5ErkJggg==;" vertex="1" parent="1">
                    <mxGeometry x="-111" y="708" width="62" height="89" as="geometry"/>
                </mxCell>
                <mxCell id="52" value="Prompt" style="text;whiteSpace=wrap;fontSize=26;fontFamily=Caveat;fontSource=https%3A%2F%2Ffonts.googleapis.com%2Fcss%3Ffamily%3DCaveat;fontStyle=1" vertex="1" parent="1">
                    <mxGeometry x="-111" y="652" width="75" height="30" as="geometry"/>
                </mxCell>
                <mxCell id="53" value="LLM" style="text;whiteSpace=wrap;fontSize=26;fontFamily=Caveat;fontSource=https%3A%2F%2Ffonts.googleapis.com%2Fcss%3Ffamily%3DCaveat;fontStyle=1" vertex="1" parent="1">
                    <mxGeometry x="168.5" y="650" width="75" height="30" as="geometry"/>
                </mxCell>
                <mxCell id="54" value="O que é LangChain?" style="text;whiteSpace=wrap;" vertex="1" parent="1">
                    <mxGeometry x="-138" y="855" width="139" height="36" as="geometry"/>
                </mxCell>
                <mxCell id="56" style="edgeStyle=none;html=1;sketch=1;curveFitting=1;jiggle=2;" edge="1" parent="1">
                    <mxGeometry relative="1" as="geometry">
                        <mxPoint x="440" y="754" as="targetPoint"/>
                        <mxPoint x="266" y="754" as="sourcePoint"/>
                    </mxGeometry>
                </mxCell>
                <mxCell id="57" value="Answer" style="text;whiteSpace=wrap;fontSize=26;fontFamily=Caveat;fontSource=https%3A%2F%2Ffonts.googleapis.com%2Fcss%3Ffamily%3DCaveat;fontStyle=1" vertex="1" parent="1">
                    <mxGeometry x="478" y="652" width="75" height="30" as="geometry"/>
                </mxCell>
                <mxCell id="58" value="" style="shape=image;verticalLabelPosition=bottom;labelBackgroundColor=default;verticalAlign=top;aspect=fixed;imageAspect=0;image=data:image/png,iVBORw0KGgoAAAANSUhEUgAAAD4AAABWCAYAAACXZiVzAAAABHNCSVQICAgIfAhkiAAADhJJREFUeF7t3EerZcUWB/Dqts05Z21zzgqKigoiijowoSAOBD+FUwfiZ3DmXKeKIjoyR8w555yz7/WvHv/DvvvsdLS17739Coq9T8X1X2vVWqtq171r/rMhlc0wrd0MMVfI/we+uUl+XQBb6n/++WdZu3ZtWbNmzUbjg3GTjZ952uUmTFnf5OhqZrRuscUWlWZp3bp1dYwp9M+Af/DBB+Xzzz8vO+64Y9l2223rgO1swDDGMyD++OOPyrT2U9kvv/xSfvzxx/Ldd9+Vr776qvz000/l66+/ruU///xzfX777be176+//lrb6hcmmSNpu+22q7TttNNOlY6999677LbbbmWvvfaqYA844IA65j777FN23nnnPv79j0mpvf3228sdd9xRvvjii7LffvvVAXfdddf6lE2yyy671Em32WabyiDEfvrpp5Vh+n3yySf1md/egQoIEomEAmLrrbcu22+/fQWddojHAE+5yewm870bz7jm2XLLLYvxbrnllnLTTTfVur40k/jNN99cJfjII4+UCy+8sAJ69tlny7333lu+//77JdI3UTLwshTCMxmCMSsJWIQ12/3+++/ls88+q0RvtdVWlalhrt8y6emrHJM8SV6ZOr9vvfXWsvvuu1fad9hhhzrHJOAIkr/88svy5ptvVtC4ePLJJ1cNOOigg8q+++5b1ejAAw+s6oVIoKlxniZsp99++60yKmuPtmRdAgZAtKH9HCK+Oc/9999fPvroo3LBBRdUmi+++OLKiL40k7gG1Ms6vOaaa8ptt91WuYuQsYQZmzodfPDB5aGHHqoCkJu2oYu2JajSKSrU1WG5lh155JHl7bffrsbTsolG9dE7F8D88MMPxbpbaWn//fevtuj111+feaUhDHPAqQjgY6oyNOimqOPKLM133nlnEu1LgMfa4txKkzpLzuCS+JQAZgnwqDkrvNIkTssOOeSQ8swzz1R3NuYNlgAPWEFDfPPfUVsaZJwuFzdlXFrH04j0+HqCGRLI+vXrq0sbapN5O30ViS9CrIn0YVETgZnAb8CpnoAjllb7RFzcZayw8FX/eBcxxfvvv1+zqPDss8+uuc/Fijf02XPPPUf5OgccUQieAhxY9oBUPv744/LSSy9VIgEwTuIAY5FWABlf8IMZiOSDBRsvvPBCeeONN6qE9VF+1FFHVbCkKcAaWr8MHJq44zFVXwI8KhIj18W2MAZgG5v77ruvgjXpiSeeWM4666w6cReBpCnKEw6/+OKL5eWXXy7PPfdcjQjtBagzpvkt1MUUDAFGH5qR0LVrfBJX3owSuzAomwEHNm7MGu+TuLpHH3205gARL5PiY489VnMSJoXAqPcee+xRre8555xTrrvuuhpnA5REK8xB6h9++GF59913K5NseMx36qmn1nC02Sd9hdXmS+4DPQcctwEeWuPid2v1xhtvrBIZi5CGJu+qo6KWiCwoOeOMM7qadZZhamL/Mbrm1rgRh9wZlZSXYwIa+D7j16R5LnJTGWu8HMEN0UTKWedD7dR1Ah/rtFzrAWczpqQZcMYnVn1Kx+Xaht3psvhtepcAZ9UZtyn72fZAy+U3jzElLXFn3AWpd21NMSWRFeMXJjW1JD40UZmAg8GZYmymEDuljfPBKanTqrc7Ygh/KmARZHzzzTc1EOFvm8CtMcdKcUe4j5AcNWEAZojaMGSKSjZ98pT2xh3ySsE2Cbj49+mnn64h5mGHHVZdhhPYZoSGATTCJsEpKyY9//zzlWGYZAlhAN9sDOGosoS3YUjb//oNsKeMaUPxg/BZrEEjMaEvzQE3SdvIOVNzDiepQzCXJ5pqBj2iLWU5YmYrwiTvNOWtt96qERmmJDLTDxgaglhRWU5RvSeEBkZofO211w6CMt7YecIccBNmh9TFLbukhJP5CKE9NUa8LGYX5GSN952BYQZ7QiteffXV8t5771Xm2E/zx05zjcNmhCFTbIYx+0LuXlVvcrgN3GAPP/xw3TAg7LTTTqu7Jsyasv7a4wHE7x5//PE1JwHvJEWMbk9AqywTewIaJM73uy9R98kSB0pjkmuvs0yg/Iorruibb6OVA4ipsmR5YQbDavvrt9zH7HigIYKWuDOcpUp9wIcG+ifrALRNlY844ohJU9k2DzFnVYWsTY5waUNp1QK3NIbSqgXOsg+lFQM839SHwDTrJlv1KQMKTERhjEbbAMbS9o2TIKSvvl2eaI3L42J9DT3zzDPr2fnYQaKxxtb4XADTJqD5W7QlcyvZiHg2mdAkuOlusqkZGr9ZZ0yAE8refffd1aoDxPPw40NbUGHrkFWfAddIJGXCPv/omNdxryCG6jUjKnG7zUkk1HaLORo2fpgGqPc285SjRVhsn8B3G9vXUCGvdPTRR9dv4X915zcDntNNm4A+VTKJ4EKUxU/y+6IkTzs1RCZ4yF2WMBFjJWPIifYwCFO65kST7/Us9A033FCPrvUl9b5Aa2xtVyLQkRfPqEafxLVB8NQgojl23sX1GJXPQdn7Y1SYk7aY4ozd2XqTJuV9acyap99Ca7xvskXKEZ01uki/qW2nSnzOnbG+QxKfSsBybzcHnBqypl1rbrmDWYS+OeAxHKtd6nPAF+Hacm47JrhVC3zI8hPYqgXu+GpI6nPuTNCgQ7MT35uIa2iwtuqL6+Wc16tPlCYAIZUENAyq90XGb8+3yO854Kx6OyoSkYnPhY0CCtFdk0DM0k/GIL40Z/A5iU1wFKBA53w97yK4tDNOygVNsvqhkLoJfMwrzQHvCwfdXhAVHXroofVs3JGz37nFIK4WfQllxfGPP/54PS62m3JAGEJI3xzaOYMX6jbDX3EEhsjU1QcJmxOhcjYmLgA0N0ZdkrZ3GEpzwLsaA3n11VeXV155pdxzzz3lwQcfLMcee2yVKokC6NSVtNQh9vTTT6+/AdXOezJwCJeBc9IaxlD5LAGMxRRHz2J2DD388MPL9ddfXxk/tCzGjNsk4JhhktxQeOCBB6pESQtA90hJCMBTTjmlXH755VXKQ4TlVNfy8E4Lcp5Pc/KJyvbS9lM79TTLbg2zh9TZshhKc8DHtqakhOMkDLhPS24rIcxnoauuuqpKcAg0grKGxyTTRXzsQFddysa+k88Bx1HEdK0ha8zWMAlXzz///Jr/zTTGVLSMubM5P55NypTB/02wi8wVzzHUZw74UOOVUscDAD+UViVwPr9rqTYZ0Ql8apAwxNFNVcfw5XxviIZOfUiENNSxq45HELVxTWyF381jZe6HCub0dFE7wp05fxPQGKMr8S4s+piqdwLvs+rNiQQWPhfn78rUAQx4jpLbwGN0PM2BETyFMFg43McIft0Jq2CJD7/ooot6Xaa2uXrSxZiUdQIf6qCOFPN3aYihXhIgAhkTJwIDMIBIDMP4f/0sKdqVS7uisdyKMJ62/tTCZQRPOYarj0n60Yihem0WAk6CPtiTso0LoMccc8ySNdWcsD253xjiKQNOkk8++WSNyNx+wASBEO0RproZjXn+kO6uu+6qf1M2FpW5nzOWFgJOhQEHGmEkbZOSFKBdgNMma7PJBCEvLRIBugFx3HHH1XvrNEf46zgbAzBHiDy0fo0zFrzMSbxNcJtrOH3ppZe2i+vvqHvzmXf1MXI5P1cHiHKqr9ydFzTYWT311FPVOFpSNiuAX3bZZXUpDSXLw45wLM0kTu1IY8z/9Q3YJ+12+zE1TXtSBzjXxVwLGfpWph9m0kaGciwtAd40RGMd/416ANiQqYn25GvuWJ+F1njXYPlmRlusrfbpTFefjVWWL6LU224R8LGbEJm7E7i11VyfbULVcTEu6Jlcpi3WZqw2A4QR3I+MIV3LqGuedlkCIu4wGVifrM2pnitEN08wZavbCZwUDSLxtw4YTIijOQx44oknarmJXdFUri0mZL3n+MihhOzjnzF4B+ASyLQZ0gYeQSRAMldiAUdibl2a09wMZvOqaVtogxIPYRpRHa6FdTUJIvlJk/hGTZr8uYmBk7wLHbm6aIYwko9mvRmgXLtMNEdTtKEl3Jj1HYZgoHbK1DOQaCBdf+vuJqW2aAxD+wDPAUdsADRVff2Gm4vuj7qYazKW9aSTTpqFmCaKT8+g+iPEmJ6I9q5tgDtoxAAqq32iPgwAMCGtMfVv7h9Im7a5+XjllVdWCUs0ThpzeXXM2nJDQmDcmYGpZMoRkQNHAKLK6TvVRWkfaVkeSTSMhtAOsThJuteauUJb5o3Ku6Hh0DNnbznUXAh4U+JZzzPKNry012Gz7u++R90dXcvtlAAnSzDGst0uqv6XjBuADESMW3vwTfGbBKdIMRumoZ1e6J+pOtVisKhN1k8u+MT6UlPLQdYukmqr/qZgjjlzwXfsY4K2M+COiakKdXJmbs01t5e5OO8Z42MC2W9M8Z7PPanLM4bzn2QKmqWFgNsg+ALCpTAe/kaUumNErDyDF0ttSQBjPWGQyfT1LluH+fTjnRvSJgEORkVTEipHi5SnPnWeNEz/WPkYY/3kc889t9x55521zViaSdzfcNoHs94nnHBCHQhohg4jgE8Ela8fGBFXFkvLZelD7WRtlSWc1cfmw/hcG3sCiD6YGaCYhAGeyq1xdXk2PyR6V64dhr322mv1Pp45+tISd+ZjAb/NTSC0mZoRVxjQLMOYaAYQscDZehoLE9gR7gp4NsS7NsqVeWfF/fY0l36ycT2NHRowQ8bc+HoHG5dccskg8DUbOsz+i5QoTeemGvZxbGOUmzoMAyYfCe2wBDb5tk4zoh0Yk5A1jDaOck/2xmnNeeedNx34xgCzUsboPFdfKcT/HTo3W+D/BXyQonmeuGJjAAAAAElFTkSuQmCC;" vertex="1" parent="1">
                    <mxGeometry x="480" y="711" width="62" height="86" as="geometry"/>
                </mxCell>
                <mxCell id="59" value="Output" style="text;whiteSpace=wrap;fontSize=26;fontFamily=Caveat;fontSource=https%3A%2F%2Ffonts.googleapis.com%2Fcss%3Ffamily%3DCaveat;fontStyle=0" vertex="1" parent="1">
                    <mxGeometry x="470" y="802" width="75" height="30" as="geometry"/>
                </mxCell>
                <mxCell id="60" value="Input" style="text;whiteSpace=wrap;fontSize=26;fontFamily=Caveat;fontSource=https%3A%2F%2Ffonts.googleapis.com%2Fcss%3Ffamily%3DCaveat;fontStyle=0" vertex="1" parent="1">
                    <mxGeometry x="-115" y="806" width="75" height="30" as="geometry"/>
                </mxCell>
            </root>
        </mxGraphModel>
    </diagram>
</mxfile>